# xmcd
#
# Track frame offsets:
#	150
#	17779
#	32900
#	49402
#	68575
#	85487
#	107411
#	120987
#	135929
#	153268
#	171925
#	186095
#	202936
#	222646
#	239808
#	269556
#
# Disc length: 3602 seconds
#
# Revision: 1
# Processed by: cddbd v1.5.2PL0 Copyright (c) Steve Scherf et al.
# Submitted via: audiograbber 1.83.01
#
DISCID=e40e1010
DTITLE=Various Artist - SC8992
DYEAR=1900
DGENRE=Karaoke
TTITLE0=Bentley, Dierks - Settle For A Slowdown
TTITLE1=Montgomery Gentry - She Don't Tell Me Too
TTITLE2=Strait, George - She Let Herself Go
TTITLE3=Paisley, Brad - World, The
TTITLE4=Heartland - I Loved Her First
TTITLE5=Rascal Flatts - Life Is A Highway
TTITLE6=Nichols, Joe - Size Matters (Someday)
TTITLE7=Nichols, Joe - Tequila Makes Her Clothes Fall Off
TTITLE8=Chesney, Kenny - Living In Fast Forward
TTITLE9=Morgan, Craig - Redneck Yacht Club
TTITLE10=Carolina Rain - Get Outta My Way
TTITLE11=Turner, Josh - Your Man
TTITLE12=Keith, Toby - Little Too Late, A
TTITLE13=Ingram, Jack - Wherever You Are
TTITLE14=Bentley, Dierks - Lot Of Leavin' Left To Do
TTITLE15=Data - Data Track
EXTD=
EXTT0=
EXTT1=
EXTT2=
EXTT3=
EXTT4=
EXTT5=
EXTT6=
EXTT7=
EXTT8=
EXTT9=
EXTT10=
EXTT11=
EXTT12=
EXTT13=
EXTT14=
EXTT15=
PLAYORDER=
